<mxfile host="app.diagrams.net" agent="Mozilla/5.0 (Windows NT 10.0; Win64; x64) AppleWebKit/537.36 (KHTML, like Gecko) Chrome/132.0.0.0 Safari/537.36 OPR/117.0.0.0" version="26.2.13">
  <diagram name="Page-1" id="uJoerDX6KOsWPnAusNM7">
    <mxGraphModel dx="4300" dy="1873" grid="1" gridSize="10" guides="1" tooltips="1" connect="1" arrows="1" fold="1" page="1" pageScale="1" pageWidth="827" pageHeight="1169" math="0" shadow="0">
      <root>
        <mxCell id="0" />
        <mxCell id="1" parent="0" />
        <mxCell id="PKVaJ8mTQ42ZdOeIIyP1-2" value="" style="whiteSpace=wrap;html=1;aspect=fixed;" parent="1" vertex="1">
          <mxGeometry x="-80" y="10" width="2570" height="2570" as="geometry" />
        </mxCell>
        <mxCell id="PKVaJ8mTQ42ZdOeIIyP1-3" value="&lt;font style=&quot;font-size: 36px;&quot;&gt;&lt;b&gt;THE Movie Platform&lt;/b&gt;&lt;/font&gt;" style="text;html=1;align=center;verticalAlign=middle;whiteSpace=wrap;rounded=0;" parent="1" vertex="1">
          <mxGeometry x="817" y="100" width="400" height="30" as="geometry" />
        </mxCell>
        <mxCell id="PKVaJ8mTQ42ZdOeIIyP1-4" value="Visitor" style="shape=umlActor;verticalLabelPosition=bottom;verticalAlign=top;html=1;outlineConnect=0;" parent="1" vertex="1">
          <mxGeometry x="-320" y="290" width="70" height="120" as="geometry" />
        </mxCell>
        <mxCell id="PKVaJ8mTQ42ZdOeIIyP1-5" value="browse the list of movies/TvShow/Anime" style="ellipse;whiteSpace=wrap;html=1;" parent="1" vertex="1">
          <mxGeometry y="170" width="130" height="90" as="geometry" />
        </mxCell>
        <mxCell id="PKVaJ8mTQ42ZdOeIIyP1-6" value="Regitser" style="ellipse;whiteSpace=wrap;html=1;" parent="1" vertex="1">
          <mxGeometry y="440" width="120" height="80" as="geometry" />
        </mxCell>
        <mxCell id="PKVaJ8mTQ42ZdOeIIyP1-7" value="search for a movie/tvshows/Anime" style="ellipse;whiteSpace=wrap;html=1;" parent="1" vertex="1">
          <mxGeometry y="300" width="140" height="90" as="geometry" />
        </mxCell>
        <mxCell id="PKVaJ8mTQ42ZdOeIIyP1-9" value="" style="endArrow=none;html=1;rounded=0;exitX=0.077;exitY=0.784;exitDx=0;exitDy=0;exitPerimeter=0;entryX=0.5;entryY=0.5;entryDx=0;entryDy=0;entryPerimeter=0;" parent="1" source="PKVaJ8mTQ42ZdOeIIyP1-5" target="PKVaJ8mTQ42ZdOeIIyP1-4" edge="1">
          <mxGeometry width="50" height="50" relative="1" as="geometry">
            <mxPoint x="260" y="430" as="sourcePoint" />
            <mxPoint x="310" y="380" as="targetPoint" />
          </mxGeometry>
        </mxCell>
        <mxCell id="PKVaJ8mTQ42ZdOeIIyP1-11" value="" style="endArrow=none;html=1;rounded=0;" parent="1" source="PKVaJ8mTQ42ZdOeIIyP1-7" edge="1">
          <mxGeometry width="50" height="50" relative="1" as="geometry">
            <mxPoint x="19" y="253" as="sourcePoint" />
            <mxPoint x="-280" y="350" as="targetPoint" />
          </mxGeometry>
        </mxCell>
        <mxCell id="PKVaJ8mTQ42ZdOeIIyP1-12" value="" style="endArrow=none;html=1;rounded=0;entryX=0.5;entryY=0.5;entryDx=0;entryDy=0;entryPerimeter=0;" parent="1" source="PKVaJ8mTQ42ZdOeIIyP1-6" target="PKVaJ8mTQ42ZdOeIIyP1-4" edge="1">
          <mxGeometry width="50" height="50" relative="1" as="geometry">
            <mxPoint x="10" y="360" as="sourcePoint" />
            <mxPoint x="-270" y="360" as="targetPoint" />
          </mxGeometry>
        </mxCell>
        <mxCell id="PKVaJ8mTQ42ZdOeIIyP1-16" value="User&lt;div&gt;&lt;br&gt;&lt;/div&gt;" style="shape=umlActor;verticalLabelPosition=bottom;verticalAlign=top;html=1;outlineConnect=0;" parent="1" vertex="1">
          <mxGeometry x="-320" y="710" width="70" height="120" as="geometry" />
        </mxCell>
        <mxCell id="PKVaJ8mTQ42ZdOeIIyP1-17" value="see the detailsOF movies/tvshows/Anime" style="ellipse;whiteSpace=wrap;html=1;" parent="1" vertex="1">
          <mxGeometry x="110" y="584.5" width="170" height="80" as="geometry" />
        </mxCell>
        <mxCell id="PKVaJ8mTQ42ZdOeIIyP1-20" value="" style="endArrow=none;html=1;rounded=0;entryX=0.5;entryY=0.5;entryDx=0;entryDy=0;entryPerimeter=0;exitX=0.059;exitY=0.695;exitDx=0;exitDy=0;exitPerimeter=0;" parent="1" source="PKVaJ8mTQ42ZdOeIIyP1-17" target="PKVaJ8mTQ42ZdOeIIyP1-16" edge="1">
          <mxGeometry width="50" height="50" relative="1" as="geometry">
            <mxPoint x="13" y="870" as="sourcePoint" />
            <mxPoint x="-280" y="760" as="targetPoint" />
          </mxGeometry>
        </mxCell>
        <mxCell id="PKVaJ8mTQ42ZdOeIIyP1-23" value="" style="endArrow=none;html=1;rounded=0;entryX=0.5;entryY=0.5;entryDx=0;entryDy=0;entryPerimeter=0;" parent="1" target="PKVaJ8mTQ42ZdOeIIyP1-16" edge="1">
          <mxGeometry width="50" height="50" relative="1" as="geometry">
            <mxPoint x="10" y="250" as="sourcePoint" />
            <mxPoint x="-275" y="780" as="targetPoint" />
          </mxGeometry>
        </mxCell>
        <mxCell id="PKVaJ8mTQ42ZdOeIIyP1-24" value="" style="endArrow=none;html=1;rounded=0;entryX=0.5;entryY=0.5;entryDx=0;entryDy=0;entryPerimeter=0;exitX=0.042;exitY=0.711;exitDx=0;exitDy=0;exitPerimeter=0;" parent="1" target="PKVaJ8mTQ42ZdOeIIyP1-16" edge="1">
          <mxGeometry width="50" height="50" relative="1" as="geometry">
            <mxPoint x="15" y="377" as="sourcePoint" />
            <mxPoint x="-275" y="780" as="targetPoint" />
          </mxGeometry>
        </mxCell>
        <mxCell id="PKVaJ8mTQ42ZdOeIIyP1-43" value="&lt;div style=&quot;text-align: start;&quot;&gt;&lt;span style=&quot;color: light-dark(rgb(0, 0, 0), rgb(255, 255, 255)); white-space: pre-wrap; background-color: rgb(255, 255, 255);&quot;&gt;&lt;font face=&quot;Nunito Sans, sans-serif&quot;&gt;Admin&lt;/font&gt;&lt;/span&gt;&lt;/div&gt;" style="shape=umlActor;verticalLabelPosition=bottom;verticalAlign=top;html=1;outlineConnect=0;" parent="1" vertex="1">
          <mxGeometry x="-220" y="2010" width="70" height="120" as="geometry" />
        </mxCell>
        <mxCell id="PKVaJ8mTQ42ZdOeIIyP1-45" value="manage Users" style="ellipse;whiteSpace=wrap;html=1;" parent="1" vertex="1">
          <mxGeometry x="100" y="1930" width="120" height="80" as="geometry" />
        </mxCell>
        <mxCell id="PKVaJ8mTQ42ZdOeIIyP1-46" value="manage categories" style="ellipse;whiteSpace=wrap;html=1;" parent="1" vertex="1">
          <mxGeometry x="100" y="2050" width="120" height="80" as="geometry" />
        </mxCell>
        <mxCell id="PKVaJ8mTQ42ZdOeIIyP1-48" value="see statistics" style="ellipse;whiteSpace=wrap;html=1;" parent="1" vertex="1">
          <mxGeometry x="60" y="2440" width="120" height="80" as="geometry" />
        </mxCell>
        <mxCell id="PKVaJ8mTQ42ZdOeIIyP1-50" value="" style="endArrow=none;html=1;rounded=0;entryX=0.5;entryY=0.5;entryDx=0;entryDy=0;entryPerimeter=0;exitX=0.008;exitY=0.644;exitDx=0;exitDy=0;exitPerimeter=0;" parent="1" source="PKVaJ8mTQ42ZdOeIIyP1-45" target="PKVaJ8mTQ42ZdOeIIyP1-43" edge="1">
          <mxGeometry width="50" height="50" relative="1" as="geometry">
            <mxPoint x="100" y="1983" as="sourcePoint" />
            <mxPoint x="-175" y="2080" as="targetPoint" />
          </mxGeometry>
        </mxCell>
        <mxCell id="PKVaJ8mTQ42ZdOeIIyP1-51" value="" style="endArrow=none;html=1;rounded=0;entryX=0.5;entryY=0.5;entryDx=0;entryDy=0;entryPerimeter=0;" parent="1" source="PKVaJ8mTQ42ZdOeIIyP1-46" target="PKVaJ8mTQ42ZdOeIIyP1-43" edge="1">
          <mxGeometry width="50" height="50" relative="1" as="geometry">
            <mxPoint x="117" y="1993" as="sourcePoint" />
            <mxPoint x="-175" y="2080" as="targetPoint" />
          </mxGeometry>
        </mxCell>
        <mxCell id="PKVaJ8mTQ42ZdOeIIyP1-53" value="" style="endArrow=none;html=1;rounded=0;entryX=0.5;entryY=0.5;entryDx=0;entryDy=0;entryPerimeter=0;exitX=0.09;exitY=0.202;exitDx=0;exitDy=0;exitPerimeter=0;" parent="1" source="PKVaJ8mTQ42ZdOeIIyP1-48" target="PKVaJ8mTQ42ZdOeIIyP1-43" edge="1">
          <mxGeometry width="50" height="50" relative="1" as="geometry">
            <mxPoint x="127" y="2191" as="sourcePoint" />
            <mxPoint x="-165" y="2090" as="targetPoint" />
          </mxGeometry>
        </mxCell>
        <mxCell id="PKVaJ8mTQ42ZdOeIIyP1-54" value="Activate" style="ellipse;whiteSpace=wrap;html=1;" parent="1" vertex="1">
          <mxGeometry x="490" y="1850" width="100" height="70" as="geometry" />
        </mxCell>
        <mxCell id="PKVaJ8mTQ42ZdOeIIyP1-55" value="Ban" style="ellipse;whiteSpace=wrap;html=1;" parent="1" vertex="1">
          <mxGeometry x="510" y="1975" width="100" height="70" as="geometry" />
        </mxCell>
        <mxCell id="PKVaJ8mTQ42ZdOeIIyP1-57" value="" style="endArrow=open;endSize=12;dashed=1;html=1;rounded=0;exitX=0;exitY=0.5;exitDx=0;exitDy=0;" parent="1" source="PKVaJ8mTQ42ZdOeIIyP1-54" target="PKVaJ8mTQ42ZdOeIIyP1-45" edge="1">
          <mxGeometry width="160" relative="1" as="geometry">
            <mxPoint x="400" y="1881" as="sourcePoint" />
            <mxPoint x="209" y="1810" as="targetPoint" />
          </mxGeometry>
        </mxCell>
        <mxCell id="PKVaJ8mTQ42ZdOeIIyP1-58" value="" style="endArrow=open;endSize=12;dashed=1;html=1;rounded=0;exitX=0;exitY=0.5;exitDx=0;exitDy=0;entryX=0.984;entryY=0.586;entryDx=0;entryDy=0;entryPerimeter=0;" parent="1" source="PKVaJ8mTQ42ZdOeIIyP1-55" target="PKVaJ8mTQ42ZdOeIIyP1-45" edge="1">
          <mxGeometry width="160" relative="1" as="geometry">
            <mxPoint x="400" y="1991" as="sourcePoint" />
            <mxPoint x="209" y="2054" as="targetPoint" />
          </mxGeometry>
        </mxCell>
        <mxCell id="PKVaJ8mTQ42ZdOeIIyP1-60" value="&amp;lt;&amp;lt;extend&amp;gt;&amp;gt;" style="text;html=1;align=center;verticalAlign=middle;whiteSpace=wrap;rounded=0;rotation=-15;" parent="1" vertex="1">
          <mxGeometry x="290" y="1900" width="50" height="20" as="geometry" />
        </mxCell>
        <mxCell id="PKVaJ8mTQ42ZdOeIIyP1-61" value="&amp;lt;&amp;lt;extend&amp;gt;&amp;gt;" style="text;html=1;align=center;verticalAlign=middle;whiteSpace=wrap;rounded=0;rotation=30;" parent="1" vertex="1">
          <mxGeometry x="304.01" y="2000" width="50" height="20" as="geometry" />
        </mxCell>
        <mxCell id="PKVaJ8mTQ42ZdOeIIyP1-63" value="Add" style="ellipse;whiteSpace=wrap;html=1;" parent="1" vertex="1">
          <mxGeometry x="580" y="2105" width="100" height="70" as="geometry" />
        </mxCell>
        <mxCell id="PKVaJ8mTQ42ZdOeIIyP1-64" value="Delete" style="ellipse;whiteSpace=wrap;html=1;" parent="1" vertex="1">
          <mxGeometry x="540" y="2285" width="100" height="70" as="geometry" />
        </mxCell>
        <mxCell id="PKVaJ8mTQ42ZdOeIIyP1-67" value="" style="endArrow=open;endSize=12;dashed=1;html=1;rounded=0;exitX=0;exitY=0.5;exitDx=0;exitDy=0;entryX=0.984;entryY=0.43;entryDx=0;entryDy=0;entryPerimeter=0;" parent="1" target="PKVaJ8mTQ42ZdOeIIyP1-46" edge="1" source="PKVaJ8mTQ42ZdOeIIyP1-63">
          <mxGeometry width="160" relative="1" as="geometry">
            <mxPoint x="330" y="2185" as="sourcePoint" />
            <mxPoint x="127" y="2110" as="targetPoint" />
          </mxGeometry>
        </mxCell>
        <mxCell id="PKVaJ8mTQ42ZdOeIIyP1-71" value="&amp;lt;&amp;lt;extend&amp;gt;&amp;gt;" style="text;html=1;align=center;verticalAlign=middle;whiteSpace=wrap;rounded=0;rotation=5;" parent="1" vertex="1">
          <mxGeometry x="270" y="2130" width="50" height="20" as="geometry" />
        </mxCell>
        <mxCell id="PKVaJ8mTQ42ZdOeIIyP1-72" value="&amp;lt;&amp;lt;extend&amp;gt;&amp;gt;" style="text;html=1;align=center;verticalAlign=middle;whiteSpace=wrap;rounded=0;rotation=17;" parent="1" vertex="1">
          <mxGeometry x="350" y="2285" width="50" height="35" as="geometry" />
        </mxCell>
        <mxCell id="PKVaJ8mTQ42ZdOeIIyP1-75" value="Authentification" style="ellipse;whiteSpace=wrap;html=1;fillColor=#99FF99;" parent="1" vertex="1">
          <mxGeometry x="1380" y="1140" width="320" height="130" as="geometry" />
        </mxCell>
        <mxCell id="PKVaJ8mTQ42ZdOeIIyP1-81" value="" style="endArrow=open;endSize=12;dashed=1;html=1;rounded=0;edgeStyle=orthogonalEdgeStyle;exitX=1;exitY=0.5;exitDx=0;exitDy=0;" parent="1" source="PKVaJ8mTQ42ZdOeIIyP1-17" edge="1">
          <mxGeometry width="160" relative="1" as="geometry">
            <mxPoint x="120" y="630" as="sourcePoint" />
            <mxPoint x="1524" y="1140" as="targetPoint" />
            <Array as="points">
              <mxPoint x="280" y="630" />
              <mxPoint x="1524" y="630" />
            </Array>
          </mxGeometry>
        </mxCell>
        <mxCell id="PKVaJ8mTQ42ZdOeIIyP1-88" value="" style="endArrow=open;endSize=12;dashed=1;html=1;rounded=0;edgeStyle=orthogonalEdgeStyle;exitX=1;exitY=0.5;exitDx=0;exitDy=0;" parent="1" source="PKVaJ8mTQ42ZdOeIIyP1-45" target="PKVaJ8mTQ42ZdOeIIyP1-75" edge="1">
          <mxGeometry width="160" relative="1" as="geometry">
            <mxPoint x="110" y="1539" as="sourcePoint" />
            <mxPoint x="1570" y="1490" as="targetPoint" />
            <Array as="points">
              <mxPoint x="1540" y="1970" />
            </Array>
          </mxGeometry>
        </mxCell>
        <mxCell id="PKVaJ8mTQ42ZdOeIIyP1-90" value="" style="endArrow=open;endSize=12;dashed=1;html=1;rounded=0;edgeStyle=orthogonalEdgeStyle;exitX=1;exitY=0;exitDx=0;exitDy=0;entryX=0.381;entryY=0.986;entryDx=0;entryDy=0;entryPerimeter=0;" parent="1" source="PKVaJ8mTQ42ZdOeIIyP1-46" target="PKVaJ8mTQ42ZdOeIIyP1-75" edge="1">
          <mxGeometry width="160" relative="1" as="geometry">
            <mxPoint x="90" y="1850" as="sourcePoint" />
            <mxPoint x="1524" y="1461.08" as="targetPoint" />
            <Array as="points">
              <mxPoint x="1502" y="2062" />
            </Array>
          </mxGeometry>
        </mxCell>
        <mxCell id="PKVaJ8mTQ42ZdOeIIyP1-92" value="" style="endArrow=open;endSize=12;dashed=1;html=1;rounded=0;edgeStyle=orthogonalEdgeStyle;exitX=1;exitY=0.5;exitDx=0;exitDy=0;entryX=0.756;entryY=0.899;entryDx=0;entryDy=0;entryPerimeter=0;" parent="1" source="PKVaJ8mTQ42ZdOeIIyP1-48" target="PKVaJ8mTQ42ZdOeIIyP1-75" edge="1">
          <mxGeometry width="160" relative="1" as="geometry">
            <mxPoint x="110" y="2138.27" as="sourcePoint" />
            <mxPoint x="1643" y="1401.27" as="targetPoint" />
            <Array as="points" />
          </mxGeometry>
        </mxCell>
        <mxCell id="PKVaJ8mTQ42ZdOeIIyP1-93" style="edgeStyle=orthogonalEdgeStyle;rounded=0;orthogonalLoop=1;jettySize=auto;html=1;exitX=0.5;exitY=1;exitDx=0;exitDy=0;" parent="1" source="PKVaJ8mTQ42ZdOeIIyP1-3" target="PKVaJ8mTQ42ZdOeIIyP1-3" edge="1">
          <mxGeometry relative="1" as="geometry" />
        </mxCell>
        <mxCell id="PKVaJ8mTQ42ZdOeIIyP1-97" value="&lt;font style=&quot;font-size: 14px;&quot;&gt;&amp;lt;&amp;lt;include&amp;gt;&amp;gt;&lt;/font&gt;" style="text;html=1;align=center;verticalAlign=middle;whiteSpace=wrap;rounded=0;rotation=0;" parent="1" vertex="1">
          <mxGeometry x="870" y="605" width="80" height="20" as="geometry" />
        </mxCell>
        <mxCell id="PKVaJ8mTQ42ZdOeIIyP1-105" value="&lt;font style=&quot;font-size: 14px;&quot;&gt;&amp;lt;&amp;lt;include&amp;gt;&amp;gt;&lt;/font&gt;" style="text;html=1;align=center;verticalAlign=middle;whiteSpace=wrap;rounded=0;rotation=0;" parent="1" vertex="1">
          <mxGeometry x="1120" y="1940" width="80" height="20" as="geometry" />
        </mxCell>
        <mxCell id="PKVaJ8mTQ42ZdOeIIyP1-106" value="&lt;font style=&quot;font-size: 14px;&quot;&gt;&amp;lt;&amp;lt;include&amp;gt;&amp;gt;&lt;/font&gt;" style="text;html=1;align=center;verticalAlign=middle;whiteSpace=wrap;rounded=0;rotation=0;" parent="1" vertex="1">
          <mxGeometry x="990" y="2175" width="80" height="20" as="geometry" />
        </mxCell>
        <mxCell id="PKVaJ8mTQ42ZdOeIIyP1-110" value="&lt;font style=&quot;font-size: 14px;&quot;&gt;&amp;lt;&amp;lt;include&amp;gt;&amp;gt;&lt;/font&gt;" style="text;html=1;align=center;verticalAlign=middle;whiteSpace=wrap;rounded=0;rotation=0;" parent="1" vertex="1">
          <mxGeometry x="900" y="2450" width="80" height="20" as="geometry" />
        </mxCell>
        <mxCell id="xbdSFYl9MrGQw9n5wv3b-7" value="Add comments/ See Comments" style="ellipse;whiteSpace=wrap;html=1;" parent="1" vertex="1">
          <mxGeometry x="230" y="1030" width="170" height="110" as="geometry" />
        </mxCell>
        <mxCell id="xbdSFYl9MrGQw9n5wv3b-8" value="" style="endArrow=open;endSize=12;dashed=1;html=1;rounded=0;edgeStyle=orthogonalEdgeStyle;entryX=0.353;entryY=0.02;entryDx=0;entryDy=0;entryPerimeter=0;exitX=1;exitY=0.5;exitDx=0;exitDy=0;" parent="1" source="xbdSFYl9MrGQw9n5wv3b-7" target="PKVaJ8mTQ42ZdOeIIyP1-75" edge="1">
          <mxGeometry width="160" relative="1" as="geometry">
            <mxPoint x="540" y="1085" as="sourcePoint" />
            <mxPoint x="1280" y="1350" as="targetPoint" />
            <Array as="points">
              <mxPoint x="1493" y="1085" />
            </Array>
          </mxGeometry>
        </mxCell>
        <mxCell id="xbdSFYl9MrGQw9n5wv3b-9" value="&lt;font style=&quot;font-size: 14px;&quot;&gt;&amp;lt;&amp;lt;include&amp;gt;&amp;gt;&lt;/font&gt;" style="text;html=1;align=center;verticalAlign=middle;whiteSpace=wrap;rounded=0;rotation=0;" parent="1" vertex="1">
          <mxGeometry x="860" y="1060" width="80" height="20" as="geometry" />
        </mxCell>
        <mxCell id="X9IOP4-NAFCfbM4FHNQG-1" value="" style="endArrow=none;html=1;rounded=0;exitX=0.014;exitY=0.37;exitDx=0;exitDy=0;exitPerimeter=0;" parent="1" source="xbdSFYl9MrGQw9n5wv3b-7" edge="1">
          <mxGeometry width="50" height="50" relative="1" as="geometry">
            <mxPoint x="-38" y="962" as="sourcePoint" />
            <mxPoint x="-280" y="770" as="targetPoint" />
          </mxGeometry>
        </mxCell>
        <mxCell id="7Yq-bHt6mIR7RazrzroG-3" value="&lt;div&gt;Premium User&lt;/div&gt;&lt;div&gt;&lt;br&gt;&lt;/div&gt;" style="shape=umlActor;verticalLabelPosition=bottom;verticalAlign=top;html=1;outlineConnect=0;" parent="1" vertex="1">
          <mxGeometry x="-290" y="1460" width="70" height="120" as="geometry" />
        </mxCell>
        <mxCell id="7Yq-bHt6mIR7RazrzroG-4" value="Download Movies/TvShows&lt;div&gt;Anime&lt;/div&gt;" style="ellipse;whiteSpace=wrap;html=1;" parent="1" vertex="1">
          <mxGeometry x="-25" y="1350" width="170" height="110" as="geometry" />
        </mxCell>
        <mxCell id="7Yq-bHt6mIR7RazrzroG-5" value="Subscribe/Become A Premium User" style="ellipse;whiteSpace=wrap;html=1;" parent="1" vertex="1">
          <mxGeometry x="244.01" y="1180" width="170" height="110" as="geometry" />
        </mxCell>
        <mxCell id="7Yq-bHt6mIR7RazrzroG-6" value="" style="endArrow=none;html=1;rounded=0;exitX=0;exitY=0.5;exitDx=0;exitDy=0;entryX=0.5;entryY=0.5;entryDx=0;entryDy=0;entryPerimeter=0;" parent="1" source="7Yq-bHt6mIR7RazrzroG-4" target="7Yq-bHt6mIR7RazrzroG-3" edge="1">
          <mxGeometry width="50" height="50" relative="1" as="geometry">
            <mxPoint x="-210" y="1410" as="sourcePoint" />
            <mxPoint x="-442" y="1109" as="targetPoint" />
          </mxGeometry>
        </mxCell>
        <mxCell id="7Yq-bHt6mIR7RazrzroG-11" value="Add To MyList/ See My List" style="ellipse;whiteSpace=wrap;html=1;" parent="1" vertex="1">
          <mxGeometry x="-25" y="1690" width="170" height="110" as="geometry" />
        </mxCell>
        <mxCell id="7Yq-bHt6mIR7RazrzroG-12" value="" style="endArrow=none;html=1;rounded=0;exitX=0.5;exitY=0.5;exitDx=0;exitDy=0;entryX=0;entryY=0.5;entryDx=0;entryDy=0;exitPerimeter=0;" parent="1" source="7Yq-bHt6mIR7RazrzroG-3" target="7Yq-bHt6mIR7RazrzroG-11" edge="1">
          <mxGeometry width="50" height="50" relative="1" as="geometry">
            <mxPoint x="-210" y="1550" as="sourcePoint" />
            <mxPoint x="-440" y="1665" as="targetPoint" />
          </mxGeometry>
        </mxCell>
        <mxCell id="7Yq-bHt6mIR7RazrzroG-13" value="" style="endArrow=none;html=1;rounded=0;exitX=0.5;exitY=1;exitDx=0;exitDy=0;entryX=0.5;entryY=0.5;entryDx=0;entryDy=0;entryPerimeter=0;" parent="1" source="xbdSFYl9MrGQw9n5wv3b-7" target="7Yq-bHt6mIR7RazrzroG-3" edge="1">
          <mxGeometry width="50" height="50" relative="1" as="geometry">
            <mxPoint x="-15" y="1415" as="sourcePoint" />
            <mxPoint x="-250" y="1520" as="targetPoint" />
          </mxGeometry>
        </mxCell>
        <mxCell id="7Yq-bHt6mIR7RazrzroG-15" value="" style="endArrow=none;html=1;rounded=0;exitX=0;exitY=0.5;exitDx=0;exitDy=0;entryX=0.5;entryY=0.5;entryDx=0;entryDy=0;entryPerimeter=0;" parent="1" source="7Yq-bHt6mIR7RazrzroG-5" target="PKVaJ8mTQ42ZdOeIIyP1-16" edge="1">
          <mxGeometry width="50" height="50" relative="1" as="geometry">
            <mxPoint x="-370" y="1010" as="sourcePoint" />
            <mxPoint x="-602" y="709" as="targetPoint" />
          </mxGeometry>
        </mxCell>
        <mxCell id="7Yq-bHt6mIR7RazrzroG-19" value="" style="endArrow=none;html=1;rounded=0;exitX=0.5;exitY=1;exitDx=0;exitDy=0;entryX=0.5;entryY=0.5;entryDx=0;entryDy=0;entryPerimeter=0;" parent="1" source="PKVaJ8mTQ42ZdOeIIyP1-17" target="7Yq-bHt6mIR7RazrzroG-3" edge="1">
          <mxGeometry width="50" height="50" relative="1" as="geometry">
            <mxPoint x="-540" y="1140" as="sourcePoint" />
            <mxPoint x="-807" y="1802" as="targetPoint" />
          </mxGeometry>
        </mxCell>
        <mxCell id="7Yq-bHt6mIR7RazrzroG-20" value="" style="endArrow=none;html=1;rounded=0;exitX=0.5;exitY=1;exitDx=0;exitDy=0;entryX=0.5;entryY=0.5;entryDx=0;entryDy=0;entryPerimeter=0;" parent="1" source="PKVaJ8mTQ42ZdOeIIyP1-6" target="7Yq-bHt6mIR7RazrzroG-3" edge="1">
          <mxGeometry width="50" height="50" relative="1" as="geometry">
            <mxPoint x="-450" y="950" as="sourcePoint" />
            <mxPoint x="-740" y="1805" as="targetPoint" />
          </mxGeometry>
        </mxCell>
        <mxCell id="7Yq-bHt6mIR7RazrzroG-21" value="" style="endArrow=none;html=1;rounded=0;exitX=0.5;exitY=1;exitDx=0;exitDy=0;entryX=0.5;entryY=0.5;entryDx=0;entryDy=0;entryPerimeter=0;" parent="1" source="PKVaJ8mTQ42ZdOeIIyP1-7" target="7Yq-bHt6mIR7RazrzroG-3" edge="1">
          <mxGeometry width="50" height="50" relative="1" as="geometry">
            <mxPoint x="-620" y="980" as="sourcePoint" />
            <mxPoint x="-935" y="1980" as="targetPoint" />
          </mxGeometry>
        </mxCell>
        <mxCell id="7Yq-bHt6mIR7RazrzroG-22" value="" style="endArrow=none;html=1;rounded=0;exitX=0.5;exitY=1;exitDx=0;exitDy=0;entryX=0.5;entryY=0.5;entryDx=0;entryDy=0;entryPerimeter=0;" parent="1" source="PKVaJ8mTQ42ZdOeIIyP1-5" target="7Yq-bHt6mIR7RazrzroG-3" edge="1">
          <mxGeometry width="50" height="50" relative="1" as="geometry">
            <mxPoint x="-600" y="1020" as="sourcePoint" />
            <mxPoint x="-915" y="2150" as="targetPoint" />
          </mxGeometry>
        </mxCell>
        <mxCell id="7Yq-bHt6mIR7RazrzroG-27" value="" style="endArrow=open;endSize=12;dashed=1;html=1;rounded=0;edgeStyle=orthogonalEdgeStyle;entryX=0.08;entryY=0.724;entryDx=0;entryDy=0;entryPerimeter=0;exitX=1;exitY=0.5;exitDx=0;exitDy=0;" parent="1" source="7Yq-bHt6mIR7RazrzroG-5" target="PKVaJ8mTQ42ZdOeIIyP1-75" edge="1">
          <mxGeometry width="160" relative="1" as="geometry">
            <mxPoint x="510" y="1180" as="sourcePoint" />
            <mxPoint x="1363" y="1227" as="targetPoint" />
            <Array as="points">
              <mxPoint x="1363" y="1235" />
            </Array>
          </mxGeometry>
        </mxCell>
        <mxCell id="7Yq-bHt6mIR7RazrzroG-28" value="" style="endArrow=open;endSize=12;dashed=1;html=1;rounded=0;edgeStyle=orthogonalEdgeStyle;entryX=0;entryY=1;entryDx=0;entryDy=0;exitX=1;exitY=0.5;exitDx=0;exitDy=0;" parent="1" target="PKVaJ8mTQ42ZdOeIIyP1-75" edge="1">
          <mxGeometry width="160" relative="1" as="geometry">
            <mxPoint x="150" y="1405.23" as="sourcePoint" />
            <mxPoint x="1142" y="1404.23" as="targetPoint" />
            <Array as="points" />
          </mxGeometry>
        </mxCell>
        <mxCell id="7Yq-bHt6mIR7RazrzroG-29" value="" style="endArrow=open;endSize=12;dashed=1;html=1;rounded=0;edgeStyle=orthogonalEdgeStyle;entryX=0.272;entryY=0.914;entryDx=0;entryDy=0;exitX=1;exitY=0.5;exitDx=0;exitDy=0;entryPerimeter=0;" parent="1" source="7Yq-bHt6mIR7RazrzroG-11" target="PKVaJ8mTQ42ZdOeIIyP1-75" edge="1">
          <mxGeometry width="160" relative="1" as="geometry">
            <mxPoint x="190" y="1654.23" as="sourcePoint" />
            <mxPoint x="1466" y="1500" as="targetPoint" />
            <Array as="points">
              <mxPoint x="1467" y="1745" />
            </Array>
          </mxGeometry>
        </mxCell>
        <mxCell id="7Yq-bHt6mIR7RazrzroG-31" value="&lt;font style=&quot;font-size: 14px;&quot;&gt;&amp;lt;&amp;lt;include&amp;gt;&amp;gt;&lt;/font&gt;" style="text;html=1;align=center;verticalAlign=middle;whiteSpace=wrap;rounded=0;rotation=0;" parent="1" vertex="1">
          <mxGeometry x="870" y="1210" width="80" height="20" as="geometry" />
        </mxCell>
        <mxCell id="7Yq-bHt6mIR7RazrzroG-32" value="&lt;font style=&quot;font-size: 14px;&quot;&gt;&amp;lt;&amp;lt;include&amp;gt;&amp;gt;&lt;/font&gt;" style="text;html=1;align=center;verticalAlign=middle;whiteSpace=wrap;rounded=0;rotation=0;" parent="1" vertex="1">
          <mxGeometry x="870" y="1380" width="80" height="20" as="geometry" />
        </mxCell>
        <mxCell id="7Yq-bHt6mIR7RazrzroG-33" value="&lt;font style=&quot;font-size: 14px;&quot;&gt;&amp;lt;&amp;lt;include&amp;gt;&amp;gt;&lt;/font&gt;" style="text;html=1;align=center;verticalAlign=middle;whiteSpace=wrap;rounded=0;rotation=0;" parent="1" vertex="1">
          <mxGeometry x="850" y="1555" width="80" height="20" as="geometry" />
        </mxCell>
        <mxCell id="lXJ0BIYpvKsXdkRwjCIe-1" value="Login" style="ellipse;whiteSpace=wrap;html=1;" vertex="1" parent="1">
          <mxGeometry x="160" y="480" width="180" height="90" as="geometry" />
        </mxCell>
        <mxCell id="lXJ0BIYpvKsXdkRwjCIe-2" value="" style="endArrow=none;html=1;rounded=0;exitX=0.059;exitY=0.695;exitDx=0;exitDy=0;exitPerimeter=0;" edge="1" parent="1">
          <mxGeometry width="50" height="50" relative="1" as="geometry">
            <mxPoint x="175" y="550" as="sourcePoint" />
            <mxPoint x="-280" y="770" as="targetPoint" />
          </mxGeometry>
        </mxCell>
        <mxCell id="lXJ0BIYpvKsXdkRwjCIe-3" value="" style="endArrow=none;html=1;rounded=0;entryX=0.5;entryY=0.5;entryDx=0;entryDy=0;entryPerimeter=0;" edge="1" parent="1" source="PKVaJ8mTQ42ZdOeIIyP1-17" target="PKVaJ8mTQ42ZdOeIIyP1-4">
          <mxGeometry width="50" height="50" relative="1" as="geometry">
            <mxPoint x="18" y="470" as="sourcePoint" />
            <mxPoint x="-275" y="360" as="targetPoint" />
          </mxGeometry>
        </mxCell>
        <mxCell id="lXJ0BIYpvKsXdkRwjCIe-5" value="manage Movies" style="ellipse;whiteSpace=wrap;html=1;" vertex="1" parent="1">
          <mxGeometry x="90" y="2150" width="120" height="80" as="geometry" />
        </mxCell>
        <mxCell id="lXJ0BIYpvKsXdkRwjCIe-6" value="manage TvShow" style="ellipse;whiteSpace=wrap;html=1;" vertex="1" parent="1">
          <mxGeometry x="80" y="2258" width="120" height="80" as="geometry" />
        </mxCell>
        <mxCell id="lXJ0BIYpvKsXdkRwjCIe-7" value="" style="endArrow=open;endSize=12;dashed=1;html=1;rounded=0;exitX=1;exitY=0.5;exitDx=0;exitDy=0;entryX=0;entryY=0.5;entryDx=0;entryDy=0;" edge="1" parent="1" source="lXJ0BIYpvKsXdkRwjCIe-5" target="PKVaJ8mTQ42ZdOeIIyP1-63">
          <mxGeometry width="160" relative="1" as="geometry">
            <mxPoint x="363" y="2386" as="sourcePoint" />
            <mxPoint x="182" y="2210" as="targetPoint" />
          </mxGeometry>
        </mxCell>
        <mxCell id="lXJ0BIYpvKsXdkRwjCIe-8" value="" style="endArrow=open;endSize=12;dashed=1;html=1;rounded=0;entryX=0;entryY=0.5;entryDx=0;entryDy=0;" edge="1" parent="1" target="PKVaJ8mTQ42ZdOeIIyP1-64">
          <mxGeometry width="160" relative="1" as="geometry">
            <mxPoint x="210" y="2190" as="sourcePoint" />
            <mxPoint x="373" y="2155" as="targetPoint" />
          </mxGeometry>
        </mxCell>
        <mxCell id="lXJ0BIYpvKsXdkRwjCIe-9" value="" style="endArrow=open;endSize=12;dashed=1;html=1;rounded=0;exitX=1;exitY=0.5;exitDx=0;exitDy=0;entryX=0;entryY=1;entryDx=0;entryDy=0;" edge="1" parent="1" source="lXJ0BIYpvKsXdkRwjCIe-6" target="PKVaJ8mTQ42ZdOeIIyP1-63">
          <mxGeometry width="160" relative="1" as="geometry">
            <mxPoint x="210" y="2315" as="sourcePoint" />
            <mxPoint x="363" y="2270" as="targetPoint" />
          </mxGeometry>
        </mxCell>
        <mxCell id="lXJ0BIYpvKsXdkRwjCIe-10" value="" style="endArrow=open;endSize=12;dashed=1;html=1;rounded=0;exitX=1;exitY=0.5;exitDx=0;exitDy=0;entryX=0;entryY=1;entryDx=0;entryDy=0;" edge="1" parent="1" source="lXJ0BIYpvKsXdkRwjCIe-6" target="PKVaJ8mTQ42ZdOeIIyP1-64">
          <mxGeometry width="160" relative="1" as="geometry">
            <mxPoint x="210" y="2308" as="sourcePoint" />
            <mxPoint x="388" y="2180" as="targetPoint" />
          </mxGeometry>
        </mxCell>
        <mxCell id="lXJ0BIYpvKsXdkRwjCIe-11" value="&amp;lt;&amp;lt;extend&amp;gt;&amp;gt;" style="text;html=1;align=center;verticalAlign=middle;whiteSpace=wrap;rounded=0;rotation=5;" vertex="1" parent="1">
          <mxGeometry x="280" y="2090" width="50" height="20" as="geometry" />
        </mxCell>
        <mxCell id="lXJ0BIYpvKsXdkRwjCIe-12" value="&amp;lt;&amp;lt;extend&amp;gt;&amp;gt;" style="text;html=1;align=center;verticalAlign=middle;whiteSpace=wrap;rounded=0;rotation=5;" vertex="1" parent="1">
          <mxGeometry x="270" y="2310" width="50" height="20" as="geometry" />
        </mxCell>
        <mxCell id="lXJ0BIYpvKsXdkRwjCIe-13" value="&amp;lt;&amp;lt;extend&amp;gt;&amp;gt;" style="text;html=1;align=center;verticalAlign=middle;whiteSpace=wrap;rounded=0;rotation=329;" vertex="1" parent="1">
          <mxGeometry x="200" y="2243.68" width="50" height="20" as="geometry" />
        </mxCell>
        <mxCell id="lXJ0BIYpvKsXdkRwjCIe-14" value="&amp;lt;&amp;lt;extend&amp;gt;&amp;gt;" style="text;html=1;align=center;verticalAlign=middle;whiteSpace=wrap;rounded=0;rotation=32;" vertex="1" parent="1">
          <mxGeometry x="364" y="2263.68" width="50" height="20" as="geometry" />
        </mxCell>
        <mxCell id="lXJ0BIYpvKsXdkRwjCIe-15" value="" style="endArrow=open;endSize=12;dashed=1;html=1;rounded=0;entryX=0;entryY=1;entryDx=0;entryDy=0;" edge="1" parent="1" target="PKVaJ8mTQ42ZdOeIIyP1-54">
          <mxGeometry width="160" relative="1" as="geometry">
            <mxPoint x="210" y="2190" as="sourcePoint" />
            <mxPoint x="373" y="2155" as="targetPoint" />
          </mxGeometry>
        </mxCell>
        <mxCell id="lXJ0BIYpvKsXdkRwjCIe-16" value="" style="endArrow=open;endSize=12;dashed=1;html=1;rounded=0;entryX=0.08;entryY=0.716;entryDx=0;entryDy=0;exitX=1;exitY=0;exitDx=0;exitDy=0;entryPerimeter=0;" edge="1" parent="1" source="lXJ0BIYpvKsXdkRwjCIe-6" target="PKVaJ8mTQ42ZdOeIIyP1-54">
          <mxGeometry width="160" relative="1" as="geometry">
            <mxPoint x="220" y="2200" as="sourcePoint" />
            <mxPoint x="425" y="1930" as="targetPoint" />
          </mxGeometry>
        </mxCell>
        <mxCell id="lXJ0BIYpvKsXdkRwjCIe-17" value="" style="endArrow=open;endSize=12;dashed=1;html=1;rounded=0;entryX=0;entryY=1;entryDx=0;entryDy=0;" edge="1" parent="1" target="PKVaJ8mTQ42ZdOeIIyP1-55">
          <mxGeometry width="160" relative="1" as="geometry">
            <mxPoint x="220" y="2190" as="sourcePoint" />
            <mxPoint x="425" y="1930" as="targetPoint" />
          </mxGeometry>
        </mxCell>
        <mxCell id="lXJ0BIYpvKsXdkRwjCIe-18" value="" style="endArrow=open;endSize=12;dashed=1;html=1;rounded=0;entryX=0.5;entryY=1;entryDx=0;entryDy=0;exitX=1;exitY=0;exitDx=0;exitDy=0;" edge="1" parent="1" target="PKVaJ8mTQ42ZdOeIIyP1-55">
          <mxGeometry width="160" relative="1" as="geometry">
            <mxPoint x="192" y="2280" as="sourcePoint" />
            <mxPoint x="435" y="1940" as="targetPoint" />
          </mxGeometry>
        </mxCell>
        <mxCell id="lXJ0BIYpvKsXdkRwjCIe-19" value="" style="endArrow=none;html=1;rounded=0;exitX=0;exitY=0.5;exitDx=0;exitDy=0;" edge="1" parent="1" source="lXJ0BIYpvKsXdkRwjCIe-5">
          <mxGeometry width="50" height="50" relative="1" as="geometry">
            <mxPoint x="110" y="2097" as="sourcePoint" />
            <mxPoint x="-180" y="2070" as="targetPoint" />
          </mxGeometry>
        </mxCell>
        <mxCell id="lXJ0BIYpvKsXdkRwjCIe-20" value="" style="endArrow=none;html=1;rounded=0;exitX=0.025;exitY=0.317;exitDx=0;exitDy=0;exitPerimeter=0;entryX=0.5;entryY=0.5;entryDx=0;entryDy=0;entryPerimeter=0;" edge="1" parent="1" source="lXJ0BIYpvKsXdkRwjCIe-6" target="PKVaJ8mTQ42ZdOeIIyP1-43">
          <mxGeometry width="50" height="50" relative="1" as="geometry">
            <mxPoint x="100" y="2200" as="sourcePoint" />
            <mxPoint x="-170" y="2080" as="targetPoint" />
          </mxGeometry>
        </mxCell>
        <mxCell id="lXJ0BIYpvKsXdkRwjCIe-21" value="&amp;lt;&amp;lt;extend&amp;gt;&amp;gt;" style="text;html=1;align=center;verticalAlign=middle;whiteSpace=wrap;rounded=0;rotation=354;" vertex="1" parent="1">
          <mxGeometry x="420" y="2130" width="50" height="20" as="geometry" />
        </mxCell>
        <mxCell id="lXJ0BIYpvKsXdkRwjCIe-22" value="&amp;lt;&amp;lt;extend&amp;gt;&amp;gt;" style="text;html=1;align=center;verticalAlign=middle;whiteSpace=wrap;rounded=0;rotation=329;" vertex="1" parent="1">
          <mxGeometry x="240" y="2250" width="50" height="20" as="geometry" />
        </mxCell>
        <mxCell id="lXJ0BIYpvKsXdkRwjCIe-23" value="&amp;lt;&amp;lt;extend&amp;gt;&amp;gt;" style="text;html=1;align=center;verticalAlign=middle;whiteSpace=wrap;rounded=0;rotation=329;" vertex="1" parent="1">
          <mxGeometry x="304.01" y="2044.9999999999998" width="50" height="20" as="geometry" />
        </mxCell>
        <mxCell id="lXJ0BIYpvKsXdkRwjCIe-27" value="" style="endArrow=open;endSize=12;dashed=1;html=1;rounded=0;edgeStyle=orthogonalEdgeStyle;exitX=1;exitY=0;exitDx=0;exitDy=0;" edge="1" parent="1">
          <mxGeometry width="160" relative="1" as="geometry">
            <mxPoint x="220" y="2195.14" as="sourcePoint" />
            <mxPoint x="1520.1111111111113" y="1269.9957990056294" as="targetPoint" />
            <Array as="points">
              <mxPoint x="1520" y="2195.14" />
            </Array>
          </mxGeometry>
        </mxCell>
        <mxCell id="lXJ0BIYpvKsXdkRwjCIe-28" value="&lt;font style=&quot;font-size: 14px;&quot;&gt;&amp;lt;&amp;lt;include&amp;gt;&amp;gt;&lt;/font&gt;" style="text;html=1;align=center;verticalAlign=middle;whiteSpace=wrap;rounded=0;rotation=0;" vertex="1" parent="1">
          <mxGeometry x="1030" y="2030" width="80" height="20" as="geometry" />
        </mxCell>
        <mxCell id="lXJ0BIYpvKsXdkRwjCIe-29" value="" style="endArrow=open;endSize=12;dashed=1;html=1;rounded=0;edgeStyle=orthogonalEdgeStyle;exitX=1;exitY=1;exitDx=0;exitDy=0;" edge="1" parent="1" source="lXJ0BIYpvKsXdkRwjCIe-6">
          <mxGeometry width="160" relative="1" as="geometry">
            <mxPoint x="200" y="2319.89" as="sourcePoint" />
            <mxPoint x="1500" y="1270" as="targetPoint" />
            <Array as="points">
              <mxPoint x="182" y="2320" />
              <mxPoint x="1580" y="2320" />
              <mxPoint x="1580" y="1270" />
            </Array>
          </mxGeometry>
        </mxCell>
        <mxCell id="lXJ0BIYpvKsXdkRwjCIe-30" value="Community" style="ellipse;whiteSpace=wrap;html=1;" vertex="1" parent="1">
          <mxGeometry x="-25" y="1510" width="170" height="110" as="geometry" />
        </mxCell>
        <mxCell id="lXJ0BIYpvKsXdkRwjCIe-31" value="" style="endArrow=none;html=1;rounded=0;exitX=0;exitY=0.5;exitDx=0;exitDy=0;entryX=0.5;entryY=0.5;entryDx=0;entryDy=0;entryPerimeter=0;" edge="1" parent="1" source="lXJ0BIYpvKsXdkRwjCIe-30">
          <mxGeometry width="50" height="50" relative="1" as="geometry">
            <mxPoint x="-15" y="1415" as="sourcePoint" />
            <mxPoint x="-245" y="1530" as="targetPoint" />
          </mxGeometry>
        </mxCell>
        <mxCell id="lXJ0BIYpvKsXdkRwjCIe-32" value="" style="endArrow=open;endSize=12;dashed=1;html=1;rounded=0;edgeStyle=orthogonalEdgeStyle;exitX=0.987;exitY=0.652;exitDx=0;exitDy=0;exitPerimeter=0;" edge="1" parent="1" source="lXJ0BIYpvKsXdkRwjCIe-30">
          <mxGeometry width="160" relative="1" as="geometry">
            <mxPoint x="160" y="1579.56" as="sourcePoint" />
            <mxPoint x="1460" y="1270" as="targetPoint" />
            <Array as="points">
              <mxPoint x="1450" y="1582" />
              <mxPoint x="1450" y="1425" />
            </Array>
          </mxGeometry>
        </mxCell>
        <mxCell id="lXJ0BIYpvKsXdkRwjCIe-33" value="&lt;font style=&quot;font-size: 14px;&quot;&gt;&amp;lt;&amp;lt;include&amp;gt;&amp;gt;&lt;/font&gt;" style="text;html=1;align=center;verticalAlign=middle;whiteSpace=wrap;rounded=0;rotation=0;" vertex="1" parent="1">
          <mxGeometry x="860" y="1710" width="80" height="20" as="geometry" />
        </mxCell>
        <mxCell id="lXJ0BIYpvKsXdkRwjCIe-35" value="&lt;font style=&quot;font-size: 14px;&quot;&gt;&amp;lt;&amp;lt;include&amp;gt;&amp;gt;&lt;/font&gt;" style="text;html=1;align=center;verticalAlign=middle;whiteSpace=wrap;rounded=0;rotation=0;" vertex="1" parent="1">
          <mxGeometry x="920" y="2290" width="80" height="20" as="geometry" />
        </mxCell>
      </root>
    </mxGraphModel>
  </diagram>
</mxfile>
